<svg xmlns="http://www.w3.org/2000/svg" viewBox="0 0 167.03 165.7"><defs><style>.cls-1{fill:#ffd600;}.cls-2{fill:#502a1b;}.cls-3{fill:#fff;}.cls-4{fill:none;stroke:#000;stroke-miterlimit:10;}</style></defs><title>Asset 4</title><g id="Layer_2" data-name="Layer 2"><g id="Emojis"><polygon class="cls-1" points="137.29 68.51 137.29 88 127.55 88 127.55 97.75 98.32 97.75 98.32 88 88.57 88 88.57 78.25 78.83 78.25 78.83 88 69.09 88 69.09 97.75 39.85 97.75 39.85 88 30.11 88 30.11 68.51 20.37 68.51 20.37 107.48 30.11 107.48 30.11 126.97 39.85 126.97 39.85 136.72 59.34 136.72 59.34 146.47 108.06 146.47 108.06 136.72 127.55 136.72 127.55 126.97 137.29 126.97 137.29 107.48 147.04 107.48 147.04 68.51 137.29 68.51"/><polygon class="cls-1" points="137.29 58.77 137.29 39.28 127.55 39.28 127.55 29.53 108.06 29.53 108.06 19.79 59.34 19.79 59.34 29.53 39.85 29.53 39.85 39.28 30.11 39.28 30.11 58.77 137.29 58.77"/><rect class="cls-2" x="108.06" y="107.48" width="9.75" height="9.75"/><rect class="cls-2" x="69.09" y="117.23" width="38.97" height="9.74"/><polygon points="20.37 58.77 20.37 68.51 30.11 68.51 30.11 88 39.85 88 39.85 68.51 59.34 68.51 59.34 78.25 49.6 78.25 49.6 88 39.85 88 39.85 97.75 69.09 97.75 69.09 88 78.83 88 78.83 78.25 88.57 78.25 88.57 88 98.32 88 98.32 68.51 117.81 68.51 117.81 78.25 108.06 78.25 108.06 88 98.32 88 98.32 97.75 127.55 97.75 127.55 88 137.29 88 137.29 68.51 147.04 68.51 147.04 58.77 20.37 58.77"/><polygon class="cls-3" points="98.32 68.51 98.32 88 108.06 88 108.06 78.25 117.81 78.25 117.81 68.51 98.32 68.51"/><polygon class="cls-3" points="39.85 68.51 39.85 88 49.6 88 49.6 78.25 59.34 78.25 59.34 68.51 39.85 68.51"/><line class="cls-4" x1="0.68" y1="29.42" x2="166.72" y2="29.42"/><line class="cls-4" x1="0.68" y1="39.05" x2="166.72" y2="39.05"/><line class="cls-4" x1="0.68" y1="48.68" x2="166.72" y2="48.68"/><line class="cls-4" x1="0.68" y1="59.12" x2="166.72" y2="59.12"/><line class="cls-4" x1="0.68" y1="68.74" x2="166.72" y2="68.74"/><line class="cls-4" x1="0.68" y1="78.37" x2="166.72" y2="78.37"/><line class="cls-4" x1="0.68" y1="88" x2="166.72" y2="88"/><line class="cls-4" x1="0.5" y1="98" x2="166.55" y2="98"/><line class="cls-4" x1="0.5" y1="107.63" x2="166.55" y2="107.63"/><line class="cls-4" x1="0.5" y1="117.25" x2="166.55" y2="117.25"/><line class="cls-4" x1="0.5" y1="126.88" x2="166.55" y2="126.88"/><line class="cls-4" x1="0.5" y1="136.32" x2="166.55" y2="136.32"/><line class="cls-4" x1="0.5" y1="145.95" x2="166.55" y2="145.95"/><line class="cls-4" x1="0.5" y1="155.58" x2="166.55" y2="155.58"/><line class="cls-4" x1="0.5" y1="165.2" x2="166.55" y2="165.2"/><line class="cls-4" x1="30.11" y1="165.2" x2="30.11" y2="0.5"/><line class="cls-4" x1="39.85" y1="165.2" x2="39.85" y2="0.5"/><line class="cls-4" x1="49.59" y1="165.2" x2="49.59" y2="0.5"/><line class="cls-4" x1="59.34" y1="165.2" x2="59.34" y2="0.5"/><line class="cls-4" x1="69.08" y1="165.2" x2="69.08" y2="0.5"/><line class="cls-4" x1="78.83" y1="165.2" x2="78.83" y2="0.5"/><line class="cls-4" x1="88.56" y1="165.2" x2="88.56" y2="0.5"/><line class="cls-4" x1="98.34" y1="165.2" x2="98.34" y2="0.5"/><line class="cls-4" x1="108.08" y1="165.2" x2="108.08" y2="0.5"/><line class="cls-4" x1="117.83" y1="165.2" x2="117.83" y2="0.5"/><line class="cls-4" x1="127.56" y1="165.2" x2="127.56" y2="0.5"/><line class="cls-4" x1="137.31" y1="165.2" x2="137.31" y2="0.5"/><line class="cls-4" x1="147.05" y1="165.2" x2="147.05" y2="0.5"/><line class="cls-4" x1="156.8" y1="165.2" x2="156.8" y2="0.5"/><line class="cls-4" x1="166.53" y1="165.2" x2="166.53" y2="0.5"/><line class="cls-4" x1="0.5" y1="165.2" x2="0.5" y2="0.5"/><line class="cls-4" x1="10.25" y1="165.2" x2="10.25" y2="0.5"/><line class="cls-4" x1="19.99" y1="165.2" x2="19.99" y2="0.5"/><line class="cls-4" x1="0.5" y1="0.5" x2="166.55" y2="0.5"/><line class="cls-4" x1="0.5" y1="10.13" x2="166.55" y2="10.13"/><line class="cls-4" x1="0.5" y1="19.75" x2="166.55" y2="19.75"/></g></g></svg>